<?xml version="1.0" standalone="no"?>
<!DOCTYPE svg PUBLIC "-//W3C//DTD SVG 20010904//EN"
 "http://www.w3.org/TR/2001/REC-SVG-20010904/DTD/svg10.dtd">
<svg version="1.0" xmlns="http://www.w3.org/2000/svg"
 width="319.000000pt" height="162.000000pt" viewBox="0 0 319.000000 162.000000"
 preserveAspectRatio="xMidYMid meet">

<g transform="translate(0.000000,162.000000) scale(0.100000,-0.100000)"
fill="#000000" stroke="none">
<path d="M580 805 l0 -565 180 0 180 0 0 95 0 95 -85 0 -85 0 0 140 0 140 835
0 835 0 0 -140 0 -140 -85 0 -85 0 0 -95 0 -95 178 2 177 3 3 563 2 562 -180
0 -180 0 0 -90 0 -89 83 -3 82 -3 3 -142 3 -143 -836 0 -836 0 3 143 3 142 83
3 82 3 0 89 0 90 -180 0 -180 0 0 -565z"/>
<path d="M327 1184 c-4 -4 -7 -176 -7 -381 l0 -374 93 3 92 3 0 375 0 375 -85
3 c-47 1 -89 0 -93 -4z"/>
<path d="M2705 1178 c-3 -7 -4 -177 -3 -378 l3 -365 93 -3 92 -3 -2 378 -3
378 -88 3 c-64 2 -89 -1 -92 -10z"/>
<path d="M189 885 c-35 -19 -54 -65 -42 -102 11 -33 69 -75 98 -71 18 3 20 10
20 93 0 89 0 90 -25 92 -14 2 -37 -4 -51 -12z"/>
<path d="M2944 887 c-3 -8 -4 -49 -2 -93 l3 -79 35 2 c69 3 113 89 72 139 -32
41 -97 59 -108 31z"/>
</g>
</svg>
