<?xml version="1.0" standalone="no"?>
<!DOCTYPE svg PUBLIC "-//W3C//DTD SVG 20010904//EN"
 "http://www.w3.org/TR/2001/REC-SVG-20010904/DTD/svg10.dtd">
<svg version="1.0" xmlns="http://www.w3.org/2000/svg"
 width="607.000000pt" height="307.000000pt" viewBox="0 0 607.000000 307.000000"
 preserveAspectRatio="xMidYMid meet">

<g transform="translate(0.000000,307.000000) scale(0.100000,-0.100000)"
fill="#000000" stroke="none">
<path d="M1990 2205 l0 -565 180 0 180 0 0 90 0 90 -85 0 -85 0 0 145 0 145
835 0 835 0 0 -145 0 -145 -85 0 -85 0 0 -90 0 -90 180 0 180 0 -2 563 -3 562
-177 3 -178 2 0 -95 0 -95 85 0 86 0 -3 -142 -3 -143 -830 0 -830 0 -3 143 -3
142 86 0 85 0 0 95 0 95 -180 0 -180 0 0 -565z"/>
<path d="M1732 2203 l3 -378 90 0 90 0 0 375 0 375 -93 3 -92 3 2 -378z"/>
<path d="M4117 2573 c-10 -9 -8 -726 2 -741 5 -9 31 -12 92 -10 l84 3 3 378 2
377 -88 0 c-49 0 -92 -3 -95 -7z"/>
<path d="M1626 2290 c-39 -12 -64 -37 -71 -70 -12 -53 36 -109 93 -110 l33 0
-3 92 c-2 50 -7 92 -13 94 -5 1 -23 -2 -39 -6z"/>
<path d="M4355 2287 c-3 -7 -5 -49 -3 -93 l3 -79 33 -3 c26 -3 39 3 62 28 38
41 39 80 3 119 -32 34 -90 51 -98 28z"/>
<path d="M2962 1207 c-27 -29 -28 -61 -2 -87 26 -26 70 -26 98 0 30 28 28 64
-4 89 -35 27 -65 27 -92 -2z"/>
<path d="M635 1177 c-3 -7 -4 -143 -3 -302 l3 -290 63 -3 62 -3 0 191 c0 104
4 190 8 190 5 0 42 -84 83 -187 l75 -188 44 0 45 0 73 180 c40 98 77 184 82
189 7 7 10 -56 10 -182 l0 -193 63 3 62 3 3 303 2 302 -84 0 -84 0 -82 -200
c-46 -110 -86 -200 -90 -200 -4 0 -29 53 -55 118 -27 64 -64 154 -83 200 l-34
82 -79 0 c-55 0 -81 -4 -84 -13z"/>
<path d="M2270 885 l0 -305 65 0 65 0 0 125 0 125 125 0 125 0 0 55 0 55 -125
0 -126 0 3 73 3 72 35 1 c19 1 81 2 138 3 l102 1 0 50 0 50 -205 0 -205 0 0
-305z"/>
<path d="M3880 885 l0 -305 65 0 64 0 3 98 3 97 102 6 c88 4 106 9 142 32 125
83 111 297 -23 358 -34 16 -66 19 -198 19 l-158 0 0 -305z m268 194 c40 -14
62 -49 62 -97 0 -71 -58 -108 -155 -100 l-40 3 -3 89 c-2 49 -1 95 2 103 7 16
90 18 134 2z"/>
<path d="M5270 885 l0 -305 65 0 65 0 0 305 0 305 -65 0 -65 0 0 -305z"/>
<path d="M3390 1096 c0 -54 0 -55 -32 -58 -36 -3 -46 -26 -34 -74 5 -19 13
-24 36 -24 l30 0 0 -137 c0 -149 6 -172 53 -207 22 -16 43 -21 92 -21 35 0 67
3 71 7 4 4 3 27 -2 50 -8 34 -14 43 -29 41 -10 -1 -27 3 -37 8 -16 9 -18 25
-18 134 l0 125 40 0 40 0 0 50 0 50 -39 0 -40 0 -3 53 -3 52 -62 3 -63 3 0
-55z"/>
<path d="M4731 1039 c-24 -4 -58 -20 -77 -34 -32 -25 -71 -82 -61 -91 2 -3 28
-7 56 -11 47 -5 55 -3 80 21 39 37 98 34 121 -6 22 -40 1 -55 -95 -69 -94 -13
-148 -40 -170 -85 -20 -42 -19 -70 4 -120 34 -75 143 -98 227 -49 41 24 42 24
47 5 4 -17 14 -20 66 -20 l61 0 0 167 c0 148 -2 171 -21 209 -33 68 -135 104
-238 83z m129 -285 c0 -29 -16 -64 -39 -81 -20 -15 -76 -17 -102 -3 -22 12
-26 62 -6 79 16 12 79 29 120 30 23 1 27 -3 27 -25z"/>
<path d="M1560 1027 c0 -7 34 -109 76 -227 42 -118 76 -225 76 -237 1 -35 -21
-53 -62 -53 -36 0 -38 -2 -48 -42 -7 -26 -8 -46 -2 -52 5 -5 36 -9 69 -9 66 1
111 21 142 63 21 28 208 551 202 563 -2 4 -31 7 -64 7 -70 0 -63 12 -115 -175
-20 -71 -40 -136 -44 -144 -5 -10 -13 4 -23 40 -9 30 -30 105 -48 167 l-32
112 -64 0 c-44 0 -63 -4 -63 -13z"/>
<path d="M2947 1033 c-4 -3 -7 -107 -7 -230 l0 -223 65 0 65 0 0 230 0 230
-58 0 c-32 0 -62 -3 -65 -7z"/>
</g>
</svg>
